<svg width="75" height="77" viewBox="0 0 75 77" fill="none" xmlns="http://www.w3.org/2000/svg">
<path d="M8.95898 20.8496C10.0404 20.8496 11.0645 20.9463 12.0312 21.1396C12.998 21.3258 13.8395 21.5908 14.5557 21.9346C15.279 22.2783 15.8519 22.6901 16.2744 23.1699C16.6969 23.6426 16.9082 24.1654 16.9082 24.7383V26.6289H14.0723V25.5762C14.0723 25.2682 13.9541 24.9746 13.7178 24.6953C13.4814 24.4089 13.1413 24.1618 12.6973 23.9541C12.2604 23.7393 11.7269 23.571 11.0967 23.4492C10.4665 23.3203 9.75391 23.2559 8.95898 23.2559C8.19271 23.2559 7.49447 23.3167 6.86426 23.4385C6.23405 23.5531 5.69336 23.7142 5.24219 23.9219C4.79102 24.1296 4.4401 24.3766 4.18945 24.6631C3.94596 24.9424 3.82422 25.2467 3.82422 25.5762V33.1602C3.82422 33.4753 3.94596 33.7725 4.18945 34.0518C4.4401 34.3311 4.79102 34.5745 5.24219 34.7822C5.69336 34.9827 6.23405 35.1439 6.86426 35.2656C7.49447 35.3802 8.19271 35.4375 8.95898 35.4375C9.75391 35.4375 10.4665 35.3766 11.0967 35.2549C11.7269 35.126 12.2604 34.9577 12.6973 34.75C13.1413 34.5423 13.4814 34.3024 13.7178 34.0303C13.9541 33.751 14.0723 33.4609 14.0723 33.1602V32.0859H16.9082V33.9766C16.9082 34.3561 16.8115 34.7178 16.6182 35.0615C16.4248 35.3981 16.1527 35.7096 15.8018 35.9961C15.458 36.2826 15.0426 36.5404 14.5557 36.7695C14.0758 36.9915 13.5387 37.1849 12.9443 37.3496C12.3571 37.5072 11.7269 37.6289 11.0537 37.7148C10.3805 37.8008 9.68229 37.8438 8.95898 37.8438C8.23568 37.8438 7.53743 37.8008 6.86426 37.7148C6.19108 37.6289 5.55729 37.5072 4.96289 37.3496C4.37565 37.1849 3.83854 36.9915 3.35156 36.7695C2.87174 36.5404 2.45638 36.2826 2.10547 35.9961C1.76172 35.7096 1.49316 35.3981 1.2998 35.0615C1.10645 34.7178 1.00977 34.3561 1.00977 33.9766V24.7383C1.00977 24.3587 1.10645 23.9971 1.2998 23.6533C1.49316 23.3096 1.76172 22.9945 2.10547 22.708C2.45638 22.4215 2.87174 22.1637 3.35156 21.9346C3.83854 21.7054 4.37565 21.512 4.96289 21.3545C5.55729 21.1898 6.19108 21.0645 6.86426 20.9785C7.53743 20.8926 8.23568 20.8496 8.95898 20.8496ZM28.1437 20.8711C28.8598 20.8711 29.5545 20.9141 30.2277 21C30.9008 21.0859 31.531 21.2113 32.1183 21.376C32.7055 21.5335 33.2426 21.7269 33.7296 21.9561C34.2166 22.1781 34.632 22.4323 34.9757 22.7188C35.3195 23.0052 35.588 23.3203 35.7814 23.6641C35.9747 24.0007 36.0714 24.3587 36.0714 24.7383V33.9551C36.0714 34.3346 35.9747 34.6963 35.7814 35.04C35.588 35.3766 35.3195 35.6882 34.9757 35.9746C34.632 36.2611 34.2166 36.5189 33.7296 36.748C33.2426 36.9701 32.7055 37.1634 32.1183 37.3281C31.531 37.4857 30.9008 37.6074 30.2277 37.6934C29.5545 37.7793 28.8598 37.8223 28.1437 37.8223C27.4275 37.8223 26.7329 37.7793 26.0597 37.6934C25.3937 37.6074 24.767 37.4857 24.1798 37.3281C23.5997 37.1634 23.0662 36.9701 22.5792 36.748C22.0922 36.5189 21.6733 36.2611 21.3224 35.9746C20.9786 35.6882 20.7101 35.3766 20.5167 35.04C20.3305 34.6963 20.2374 34.3346 20.2374 33.9551V24.7383C20.2374 24.3587 20.3305 24.0007 20.5167 23.6641C20.7101 23.3203 20.9786 23.0052 21.3224 22.7188C21.6733 22.4323 22.0922 22.1781 22.5792 21.9561C23.0662 21.7269 23.5997 21.5335 24.1798 21.376C24.767 21.2113 25.3937 21.0859 26.0597 21C26.7329 20.9141 27.4275 20.8711 28.1437 20.8711ZM33.257 25.5547C33.257 25.2467 33.1388 24.9567 32.9025 24.6846C32.6661 24.4053 32.326 24.1618 31.882 23.9541C31.4451 23.7393 30.9116 23.571 30.2814 23.4492C29.6512 23.3203 28.9386 23.2559 28.1437 23.2559C27.3774 23.2559 26.6827 23.3167 26.0597 23.4385C25.4366 23.5531 24.8995 23.7142 24.4484 23.9219C24.0043 24.1296 23.6606 24.373 23.4171 24.6523C23.1736 24.9316 23.0519 25.2324 23.0519 25.5547V33.1387C23.0519 33.4538 23.1736 33.751 23.4171 34.0303C23.6606 34.3096 24.0043 34.5531 24.4484 34.7607C24.8995 34.9684 25.4366 35.1331 26.0597 35.2549C26.6827 35.3766 27.3774 35.4375 28.1437 35.4375C28.9386 35.4375 29.6512 35.3766 30.2814 35.2549C30.9116 35.126 31.4451 34.9541 31.882 34.7393C32.326 34.5244 32.6661 34.2809 32.9025 34.0088C33.1388 33.7295 33.257 33.4395 33.257 33.1387V25.5547ZM46.5764 21.1289C47.6793 21.1289 48.7177 21.2256 49.6916 21.4189C50.6656 21.6123 51.5178 21.8809 52.2483 22.2246C52.9787 22.5684 53.5552 22.9837 53.9778 23.4707C54.4003 23.9505 54.6116 24.4805 54.6116 25.0605V33.6113C54.6116 34.1914 54.4003 34.7249 53.9778 35.2119C53.5552 35.6917 52.9787 36.1035 52.2483 36.4473C51.5178 36.791 50.6656 37.0596 49.6916 37.2529C48.7177 37.4463 47.6793 37.543 46.5764 37.543C45.9605 37.543 45.3303 37.5215 44.6858 37.4785C44.0412 37.4284 43.4146 37.3675 42.8059 37.2959C42.2043 37.2171 41.6386 37.1276 41.1086 37.0273C40.5787 36.9271 40.1239 36.8197 39.7444 36.7051V21.9668C40.1239 21.8522 40.5787 21.7448 41.1086 21.6445C41.6386 21.5443 42.2043 21.4583 42.8059 21.3867C43.4146 21.3079 44.0412 21.2471 44.6858 21.2041C45.3303 21.154 45.9605 21.1289 46.5764 21.1289ZM46.6194 23.5566C45.9677 23.5566 45.4019 23.5781 44.9221 23.6211C44.4423 23.6569 44.0305 23.707 43.6868 23.7715C43.343 23.8288 43.0565 23.8932 42.8274 23.9648C42.6054 24.0293 42.4228 24.0866 42.2795 24.1367V34.5352C42.4228 34.5924 42.6054 34.6533 42.8274 34.7178C43.0565 34.7822 43.343 34.8467 43.6868 34.9111C44.0305 34.9684 44.4423 35.0186 44.9221 35.0615C45.4019 35.0973 45.9677 35.1152 46.6194 35.1152C47.4215 35.1152 48.1412 35.0508 48.7786 34.9219C49.4231 34.793 49.9638 34.6211 50.4006 34.4062C50.8446 34.1914 51.1848 33.9443 51.4211 33.665C51.6575 33.3786 51.7756 33.0814 51.7756 32.7734V25.8984C51.7756 25.5905 51.6575 25.2969 51.4211 25.0176C51.1848 24.7311 50.8446 24.4805 50.4006 24.2656C49.9638 24.0508 49.4231 23.8789 48.7786 23.75C48.1412 23.6211 47.4215 23.5566 46.6194 23.5566ZM65.7611 21.1504C66.864 21.1504 68.0313 21.1898 69.263 21.2686C70.502 21.3473 71.791 21.5013 73.1302 21.7305V24.459C72.5287 24.2871 71.9199 24.1475 71.3041 24.04C70.6882 23.9255 70.0687 23.8359 69.4457 23.7715C68.8298 23.707 68.2139 23.6605 67.598 23.6318C66.9821 23.6032 66.3698 23.5853 65.7611 23.5781C65.4675 23.5781 65.1416 23.5853 64.7836 23.5996C64.4326 23.6068 64.0567 23.6211 63.6556 23.6426C63.2617 23.6641 62.8464 23.6963 62.4095 23.7393C61.9727 23.7822 61.5287 23.8359 61.0775 23.9004V27.8105H70.4662V30.4531H61.0775V34.7715C61.7722 34.8717 62.4955 34.9469 63.2474 34.9971C63.9994 35.0472 64.8373 35.0723 65.7611 35.0723C67.0072 35.0723 68.2461 35.0114 69.4779 34.8896C70.7097 34.7679 71.9271 34.5352 73.1302 34.1914V36.9199C71.791 37.1491 70.5056 37.3031 69.2738 37.3818C68.042 37.4606 66.8854 37.5 65.8041 37.5C64.7012 37.5 63.5303 37.4606 62.2914 37.3818C61.0596 37.3031 59.767 37.1491 58.4134 36.9199V21.7305C59.767 21.5013 61.0596 21.3473 62.2914 21.2686C63.5231 21.1898 64.6797 21.1504 65.7611 21.1504Z" fill="white"/>
<path d="M3.67676 50.0479H5.53711V51.2783H3.67676V58.5H1.93359V51.2783H0.556641V50.0479H1.93359V47.499H3.67676V50.0479ZM17.7299 50.1504C17.7299 50.6582 17.7128 51.188 17.6786 51.7397C17.6444 52.2866 17.5785 52.8506 17.4809 53.4316H15.7084C15.7523 53.2656 15.7938 53.085 15.8329 52.8896C15.8622 52.7236 15.8891 52.5308 15.9135 52.311C15.9428 52.0864 15.9574 51.8496 15.9574 51.6006C15.5277 51.6104 15.1713 51.6519 14.8881 51.7251C14.6098 51.7935 14.3778 51.8765 14.1923 51.9741C14.0067 52.0669 13.8554 52.1621 13.7382 52.2598C13.621 52.3574 13.516 52.4355 13.4232 52.4941V58.5H11.5482V52.4502C11.5287 52.2939 11.4823 52.1621 11.4091 52.0547C11.3407 51.9473 11.2675 51.8594 11.1894 51.791C11.1015 51.708 11.0014 51.6396 10.8891 51.5859L11.6654 50.1504C11.8461 50.2139 12.0243 50.2993 12.2001 50.4067C12.3515 50.4995 12.5102 50.6191 12.6762 50.7656C12.8471 50.9072 12.9984 51.083 13.1303 51.293C13.3793 51.1221 13.6088 50.978 13.8188 50.8608C14.0287 50.7388 14.2313 50.6362 14.4267 50.5532C14.6269 50.4702 14.8319 50.4067 15.0419 50.3628C15.2567 50.314 15.4911 50.2749 15.745 50.2456C16.0038 50.2163 16.2919 50.1968 16.6093 50.187C16.9315 50.1724 17.3051 50.1602 17.7299 50.1504ZM31.8563 55.5117C31.7342 55.4043 31.5828 55.2993 31.4021 55.1968C31.2215 55.0942 30.9993 55.0039 30.7356 54.9258C30.472 54.8428 30.157 54.7769 29.7908 54.728C29.4295 54.6743 29.0047 54.6475 28.5164 54.6475C28.0818 54.6475 27.6692 54.6572 27.2786 54.6768C26.8929 54.6914 26.5535 54.7402 26.2605 54.8232C25.9676 54.9014 25.7356 55.0283 25.5647 55.2041C25.3938 55.3799 25.3084 55.624 25.3084 55.9365V56.874C25.7381 56.9424 26.2117 56.9985 26.7293 57.0425C27.2469 57.0864 27.823 57.1084 28.4578 57.1084C28.9656 57.1084 29.5052 57.0913 30.0765 57.0571C30.6526 57.0181 31.2459 56.9424 31.8563 56.8301V55.5117ZM28.5604 50.1504C28.8045 50.1504 29.0999 50.1626 29.4466 50.187C29.7933 50.2114 30.1546 50.2554 30.5306 50.3188C30.9065 50.3774 31.2776 50.4604 31.6438 50.5679C32.0149 50.6704 32.347 50.8071 32.6399 50.978C32.9378 51.144 33.1771 51.3442 33.3577 51.5786C33.5384 51.813 33.6287 52.0889 33.6287 52.4062V58.0752C33.2186 58.1582 32.7547 58.229 32.2371 58.2876C31.7928 58.3413 31.263 58.3901 30.6478 58.4341C30.0325 58.478 29.3465 58.5 28.5896 58.5C27.8377 58.5 27.0369 58.4683 26.1873 58.4048C25.3426 58.3413 24.4588 58.2314 23.5359 58.0752V55.4385C23.5359 55.1553 23.6019 54.9087 23.7337 54.6987C23.8704 54.4839 24.056 54.3008 24.2903 54.1494C24.5247 53.998 24.8006 53.8735 25.118 53.7759C25.4354 53.6782 25.7771 53.6001 26.1434 53.5415C26.5096 53.4829 26.8904 53.4438 27.2859 53.4243C27.6814 53.3999 28.077 53.3877 28.4725 53.3877C29.073 53.3877 29.5833 53.4268 30.0032 53.5049C30.428 53.5781 30.7796 53.6587 31.0579 53.7466C31.3802 53.854 31.6463 53.9736 31.8563 54.1055V52.9189C31.8563 52.7188 31.8074 52.5479 31.7098 52.4062C31.6121 52.2598 31.4803 52.1377 31.3143 52.04C31.1482 51.9375 30.9578 51.8569 30.743 51.7983C30.5281 51.7349 30.3035 51.686 30.0691 51.6519C29.8348 51.6177 29.5955 51.5957 29.3514 51.5859C29.1121 51.5762 28.8875 51.5713 28.6775 51.5713C28.4578 51.5713 28.2234 51.5786 27.9744 51.5933C27.7254 51.603 27.4764 51.625 27.2273 51.6592C26.9832 51.6934 26.7464 51.7422 26.5169 51.8057C26.2923 51.8643 26.0921 51.9448 25.9163 52.0474C25.7405 52.1499 25.5989 52.2744 25.4915 52.4209C25.389 52.5625 25.3377 52.7334 25.3377 52.9336L23.5213 52.4648C23.5213 52.1377 23.6019 51.8545 23.763 51.6152C23.9241 51.3711 24.1365 51.1636 24.4002 50.9927C24.6688 50.8218 24.9764 50.6826 25.323 50.5752C25.6697 50.4629 26.0286 50.3774 26.3997 50.3188C26.7757 50.2554 27.1492 50.2114 27.5203 50.187C27.8914 50.1626 28.2381 50.1504 28.5604 50.1504ZM41.8811 50.1211C41.8518 50.3506 41.8347 50.5898 41.8298 50.8389C41.8249 51.083 41.8225 51.3271 41.8225 51.5713C41.8225 52.2256 41.8615 52.8213 41.9396 53.3584C42.0227 53.8955 42.1594 54.3838 42.3498 54.8232C42.5402 55.2627 42.7893 55.6606 43.0969 56.0171C43.4094 56.3687 43.7951 56.6885 44.2541 56.9766C44.7082 56.6885 45.0891 56.3687 45.3967 56.0171C45.7092 55.6606 45.9606 55.2627 46.1511 54.8232C46.3415 54.3838 46.4782 53.8955 46.5612 53.3584C46.6442 52.8213 46.6857 52.2256 46.6857 51.5713C46.6857 51.3271 46.6809 51.083 46.6711 50.8389C46.6613 50.5898 46.6418 50.3506 46.6125 50.1211C47.0471 50.1455 47.4328 50.1772 47.7697 50.2163C48.1066 50.2554 48.3947 50.2944 48.634 50.3335C48.9074 50.3823 49.1516 50.4287 49.3664 50.4727V52.1719C49.2199 52.1084 49.0832 52.0596 48.9562 52.0254C48.8342 51.9863 48.7268 51.957 48.634 51.9375C48.5266 51.918 48.4289 51.9033 48.341 51.8936C48.3215 52.5234 48.2775 53.0996 48.2092 53.6221C48.1457 54.1396 48.0456 54.6133 47.9089 55.043C47.7771 55.4727 47.6062 55.8657 47.3962 56.2222C47.1862 56.5737 46.9323 56.9033 46.6345 57.2109C46.3415 57.5186 45.9973 57.8091 45.6018 58.0825C45.2062 58.3511 44.757 58.6172 44.2541 58.8809C43.7512 58.6172 43.302 58.3511 42.9064 58.0825C42.5109 57.8091 42.1643 57.5186 41.8664 57.2109C41.5686 56.9033 41.3146 56.5737 41.1047 56.2222C40.8947 55.8657 40.7214 55.4727 40.5847 55.043C40.4528 54.6133 40.3503 54.1396 40.2771 53.6221C40.2087 53.1045 40.1672 52.5283 40.1525 51.8936C40.0646 51.9033 39.967 51.918 39.8596 51.9375C39.7668 51.957 39.6569 51.9863 39.53 52.0254C39.4079 52.0596 39.2736 52.1084 39.1271 52.1719V50.4727C39.3322 50.4287 39.5739 50.3823 39.8522 50.3335C40.0866 50.2944 40.3747 50.2554 40.7165 50.2163C41.0583 50.1772 41.4465 50.1455 41.8811 50.1211ZM60.2555 50.1504C60.5045 50.1504 60.8048 50.1626 61.1563 50.187C61.5079 50.2114 61.8717 50.2554 62.2477 50.3188C62.6285 50.3774 63.0045 50.4629 63.3756 50.5752C63.7467 50.6826 64.0787 50.8218 64.3717 50.9927C64.6695 51.1636 64.9088 51.3711 65.0895 51.6152C65.275 51.8545 65.3678 52.1377 65.3678 52.4648V54.9404H56.9742V56.8154C57.565 56.8984 58.1339 56.957 58.6808 56.9912C59.2276 57.0205 59.7525 57.0352 60.2555 57.0352C61.0221 57.0352 61.7154 57.0059 62.3355 56.9473C62.9605 56.8887 63.5001 56.8228 63.9542 56.7495C64.4767 56.6665 64.9479 56.5713 65.3678 56.4639V58.0898C64.44 58.2363 63.544 58.3413 62.6798 58.4048C61.8204 58.4683 61.0123 58.5 60.2555 58.5C59.4938 58.5 58.8028 58.4805 58.1827 58.4414C57.5626 58.3975 57.0304 58.3486 56.586 58.2949C56.0685 58.2363 55.6021 58.168 55.1871 58.0898V52.4648C55.1871 52.1377 55.2677 51.8545 55.4288 51.6152C55.5899 51.3711 55.8048 51.1636 56.0733 50.9927C56.3419 50.8218 56.6495 50.6826 56.9962 50.5752C57.3478 50.4629 57.7115 50.3774 58.0875 50.3188C58.4635 50.2554 58.837 50.2114 59.2081 50.187C59.5841 50.1626 59.9332 50.1504 60.2555 50.1504ZM56.9742 53.7686H63.5514V52.9189C63.5514 52.7188 63.5025 52.5479 63.4049 52.4062C63.3072 52.2598 63.1754 52.1377 63.0094 52.04C62.8482 51.9424 62.6578 51.8643 62.4381 51.8057C62.2232 51.7422 61.9986 51.6958 61.7643 51.6665C61.5299 51.6323 61.2931 51.6104 61.0538 51.6006C60.8194 51.5908 60.5973 51.5859 60.3873 51.5859C60.1676 51.5859 59.9308 51.5908 59.6769 51.6006C59.4278 51.6104 59.1764 51.6323 58.9225 51.6665C58.6686 51.7007 58.4244 51.7495 58.19 51.813C57.9557 51.8716 57.7481 51.9521 57.5675 52.0547C57.3868 52.1523 57.2428 52.2744 57.1354 52.4209C57.0279 52.5625 56.9742 52.7334 56.9742 52.9336V53.7686ZM73.5029 58.5H71.833V47.499H73.5029V58.5Z" fill="white"/>
<path d="M2 6.5L23.5 2L53 6.5L71 2" stroke="white" stroke-width="2"/>
<path d="M2 75L23.5 70.5L53 75L71 70.5" stroke="white" stroke-width="2"/>
</svg>
