<svg width="20" height="20" viewBox="0 0 20 20" fill="none" xmlns="http://www.w3.org/2000/svg">
<rect width="20" height="20" rx="10" fill="white"/>
<path d="M8.36328 13.2266C8.62109 13.2266 8.85938 13.1738 9.07812 13.0684C9.29688 12.9629 9.47656 12.8184 9.61719 12.6348C9.75781 12.4473 9.83789 12.2344 9.85742 11.9961H10.8887C10.8691 12.3711 10.7422 12.7207 10.5078 13.0449C10.2773 13.3652 9.97461 13.625 9.59961 13.8242C9.22461 14.0195 8.8125 14.1172 8.36328 14.1172C7.88672 14.1172 7.4707 14.0332 7.11523 13.8652C6.76367 13.6973 6.4707 13.4668 6.23633 13.1738C6.00586 12.8809 5.83203 12.5449 5.71484 12.166C5.60156 11.7832 5.54492 11.3789 5.54492 10.9531V10.707C5.54492 10.2812 5.60156 9.87891 5.71484 9.5C5.83203 9.11719 6.00586 8.7793 6.23633 8.48633C6.4707 8.19336 6.76367 7.96289 7.11523 7.79492C7.4707 7.62695 7.88672 7.54297 8.36328 7.54297C8.85938 7.54297 9.29297 7.64453 9.66406 7.84766C10.0352 8.04688 10.3262 8.32031 10.5371 8.66797C10.752 9.01172 10.8691 9.40234 10.8887 9.83984H9.85742C9.83789 9.57812 9.76367 9.3418 9.63477 9.13086C9.50977 8.91992 9.33789 8.75195 9.11914 8.62695C8.9043 8.49805 8.65234 8.43359 8.36328 8.43359C8.03125 8.43359 7.75195 8.5 7.52539 8.63281C7.30273 8.76172 7.125 8.9375 6.99219 9.16016C6.86328 9.37891 6.76953 9.62305 6.71094 9.89258C6.65625 10.1582 6.62891 10.4297 6.62891 10.707V10.9531C6.62891 11.2305 6.65625 11.5039 6.71094 11.7734C6.76562 12.043 6.85742 12.2871 6.98633 12.5059C7.11914 12.7246 7.29688 12.9004 7.51953 13.0332C7.74609 13.1621 8.02734 13.2266 8.36328 13.2266ZM14.7617 7.66016V8.49219H11.334V7.66016H14.7617ZM12.4941 6.11914H13.5781V12.4297C13.5781 12.6445 13.6113 12.8066 13.6777 12.916C13.7441 13.0254 13.8301 13.0977 13.9355 13.1328C14.041 13.168 14.1543 13.1855 14.2754 13.1855C14.3652 13.1855 14.459 13.1777 14.5566 13.1621C14.6582 13.1426 14.7344 13.127 14.7852 13.1152L14.791 14C14.7051 14.0273 14.5918 14.0527 14.4512 14.0762C14.3145 14.1035 14.1484 14.1172 13.9531 14.1172C13.6875 14.1172 13.4434 14.0645 13.2207 13.959C12.998 13.8535 12.8203 13.6777 12.6875 13.4316C12.5586 13.1816 12.4941 12.8457 12.4941 12.4238V6.11914Z" fill="#65E087"/>
</svg>
